<svg xmlns="http://www.w3.org/2000/svg" xmlns:xlink="http://www.w3.org/1999/xlink" width="316" zoomAndPan="magnify" viewBox="0 0 236.87999 119.249998" height="159" preserveAspectRatio="xMidYMid meet" version="1.0"><defs><g/><clipPath id="776ff0398a"><path d="M 59.535156 0 L 124.375 0 L 124.375 60 L 59.535156 60 Z M 59.535156 0 " clip-rule="nonzero"/></clipPath></defs><g clip-path="url(#776ff0398a)"><path fill="#23a4a4" d="M 109.472656 34.082031 L 94.503906 49.050781 L 94.503906 41.609375 C 94.503906 40.347656 93.742188 39.210938 92.578125 38.730469 C 91.414062 38.246094 90.074219 38.515625 89.183594 39.40625 L 81.492188 47.097656 L 81.492188 41.21875 C 81.492188 39.957031 80.730469 38.820312 79.566406 38.339844 C 78.402344 37.855469 77.0625 38.125 76.167969 39.015625 L 66.8125 48.375 C 68.511719 36.140625 79.007812 26.726562 91.703125 26.726562 C 98.640625 26.726562 104.921875 29.535156 109.472656 34.082031 Z M 103.214844 49.152344 L 113.328125 39.039062 C 115 41.859375 116.140625 45.03125 116.601562 48.417969 C 116.625 48.605469 116.570312 48.789062 116.445312 48.929688 C 116.324219 49.070312 116.144531 49.152344 115.957031 49.152344 C 114.167969 49.152344 109.269531 49.152344 103.214844 49.152344 Z M 91.703125 25.425781 C 84.707031 25.425781 79 19.714844 79 12.71875 C 79 5.71875 84.707031 0.0078125 91.703125 0.0078125 C 98.707031 0.0078125 104.410156 5.71875 104.410156 12.71875 C 104.410156 19.714844 98.707031 25.425781 91.703125 25.425781 Z M 120.441406 26.050781 L 119.695312 25.976562 C 119.125 25.921875 118.707031 25.414062 118.761719 24.84375 C 118.820312 24.273438 119.328125 23.855469 119.898438 23.910156 L 122.832031 24.195312 C 123.324219 24.246094 123.714844 24.636719 123.765625 25.128906 L 124.050781 28.0625 C 124.105469 28.632812 123.6875 29.140625 123.117188 29.195312 C 122.546875 29.253906 122.039062 28.835938 121.980469 28.265625 L 121.910156 27.519531 L 92.121094 57.308594 C 91.824219 57.605469 91.375 57.695312 90.988281 57.535156 C 90.601562 57.375 90.347656 56.996094 90.347656 56.574219 L 90.347656 44.117188 L 79.109375 55.355469 C 78.8125 55.652344 78.363281 55.742188 77.976562 55.582031 C 77.585938 55.421875 77.335938 55.042969 77.335938 54.621094 L 77.335938 43.726562 L 61.410156 59.652344 C 61.003906 60.058594 60.347656 60.058594 59.941406 59.652344 C 59.535156 59.246094 59.535156 58.585938 59.941406 58.183594 L 77.636719 40.484375 C 77.9375 40.1875 78.382812 40.097656 78.769531 40.257812 C 79.160156 40.421875 79.414062 40.800781 79.414062 41.21875 L 79.414062 52.113281 L 90.652344 40.875 C 90.949219 40.578125 91.394531 40.488281 91.785156 40.648438 C 92.171875 40.8125 92.425781 41.191406 92.425781 41.609375 L 92.425781 54.066406 Z M 120.441406 26.050781 " fill-opacity="1" fill-rule="evenodd"/></g><g fill="#23a4a4" fill-opacity="1"><g transform="translate(27.87436, 89.56885)"><g><path d="M 22.359375 -7.65625 L 9.40625 -7.65625 L 5.578125 0 L -2.65625 0 L 17.1875 -37.125 L 24.09375 -37.125 L 31.15625 0 L 23.53125 0 Z M 12.46875 -13.84375 L 21.421875 -13.84375 L 19.328125 -27.671875 Z M 12.46875 -13.84375 "/></g></g></g><g fill="#23a4a4" fill-opacity="1"><g transform="translate(59.756747, 89.56885)"><g><path d="M 26.5625 -13.71875 C 26.207031 -10.832031 25.453125 -8.265625 24.296875 -6.015625 C 23.140625 -3.773438 21.703125 -2.109375 19.984375 -1.015625 C 18.273438 0.0664062 16.375 0.582031 14.28125 0.53125 C 11.613281 0.46875 9.503906 -0.523438 7.953125 -2.453125 L 5.4375 10.609375 L -1.765625 10.609375 L 4.84375 -27.59375 L 11.46875 -27.609375 L 10.984375 -24.828125 C 12.972656 -27.078125 15.316406 -28.164062 18.015625 -28.09375 C 20.722656 -28.03125 22.820312 -27.050781 24.3125 -25.15625 C 25.8125 -23.257812 26.613281 -20.6875 26.71875 -17.4375 C 26.75 -16.382812 26.695312 -15.144531 26.5625 -13.71875 Z M 19.421875 -14.25 L 19.578125 -16.703125 C 19.617188 -18.347656 19.316406 -19.65625 18.671875 -20.625 C 18.035156 -21.59375 17.109375 -22.09375 15.890625 -22.125 C 13.796875 -22.195312 12.066406 -21.316406 10.703125 -19.484375 L 8.640625 -8.109375 C 9.273438 -6.390625 10.628906 -5.5 12.703125 -5.4375 C 14.429688 -5.382812 15.875 -6.050781 17.03125 -7.4375 C 18.1875 -8.832031 18.984375 -11.101562 19.421875 -14.25 Z M 19.421875 -14.25 "/></g></g></g><g fill="#23a4a4" fill-opacity="1"><g transform="translate(86.056553, 89.56885)"><g><path d="M 16.03125 0 C 15.8125 -0.695312 15.71875 -1.53125 15.75 -2.5 C 13.675781 -0.425781 11.332031 0.578125 8.71875 0.515625 C 6.300781 0.472656 4.296875 -0.3125 2.703125 -1.84375 C 1.117188 -3.382812 0.378906 -5.285156 0.484375 -7.546875 C 0.597656 -10.554688 1.859375 -12.863281 4.265625 -14.46875 C 6.671875 -16.070312 9.898438 -16.875 13.953125 -16.875 L 17.3125 -16.828125 L 17.671875 -18.484375 C 17.773438 -19.046875 17.800781 -19.582031 17.75 -20.09375 C 17.664062 -20.894531 17.363281 -21.519531 16.84375 -21.96875 C 16.320312 -22.414062 15.632812 -22.648438 14.78125 -22.671875 C 13.664062 -22.703125 12.71875 -22.421875 11.9375 -21.828125 C 11.15625 -21.242188 10.648438 -20.398438 10.421875 -19.296875 L 3.21875 -19.28125 C 3.332031 -21.914062 4.539062 -24.050781 6.84375 -25.6875 C 9.144531 -27.332031 11.988281 -28.132812 15.375 -28.09375 C 18.5 -28.03125 20.945312 -27.097656 22.71875 -25.296875 C 24.488281 -23.503906 25.226562 -21.203125 24.9375 -18.390625 L 22.8125 -5.171875 L 22.6875 -3.546875 C 22.65625 -2.335938 22.800781 -1.316406 23.125 -0.484375 L 23.09375 0 Z M 10.5 -5.078125 C 12.570312 -5.003906 14.382812 -5.90625 15.9375 -7.78125 L 16.828125 -12.546875 L 14.328125 -12.5625 C 11.679688 -12.5 9.769531 -11.691406 8.59375 -10.140625 C 8.164062 -9.585938 7.898438 -8.898438 7.796875 -8.078125 C 7.660156 -7.160156 7.851562 -6.429688 8.375 -5.890625 C 8.894531 -5.359375 9.601562 -5.085938 10.5 -5.078125 Z M 10.5 -5.078125 "/></g></g></g><g fill="#23a4a4" fill-opacity="1"><g transform="translate(111.005321, 89.56885)"><g><path d="M 14.65625 -34.375 L 13.46875 -27.59375 L 18.046875 -27.59375 L 17.109375 -22.1875 L 12.515625 -22.1875 L 10.171875 -8.359375 C 10.066406 -7.492188 10.132812 -6.832031 10.375 -6.375 C 10.613281 -5.914062 11.191406 -5.671875 12.109375 -5.640625 C 12.378906 -5.617188 13.109375 -5.660156 14.296875 -5.765625 L 13.796875 -0.125 C 12.515625 0.300781 11.132812 0.492188 9.65625 0.453125 C 7.300781 0.421875 5.546875 -0.3125 4.390625 -1.75 C 3.234375 -3.195312 2.753906 -5.15625 2.953125 -7.625 L 5.328125 -22.1875 L 1.421875 -22.1875 L 2.375 -27.59375 L 6.265625 -27.59375 L 7.4375 -34.375 Z M 14.65625 -34.375 "/></g></g></g><g fill="#ffffff" fill-opacity="1"><g transform="translate(124.109664, 88.55477)"><g><path d="M 11.046875 -24.53125 C 13.203125 -26.945312 15.691406 -28.132812 18.515625 -28.09375 C 21.242188 -28.03125 23.25 -27.050781 24.53125 -25.15625 C 25.820312 -23.257812 26.304688 -20.671875 25.984375 -17.390625 L 23.078125 0 L 15.890625 0 L 18.8125 -17.46875 C 18.894531 -18.125 18.914062 -18.734375 18.875 -19.296875 C 18.695312 -21.140625 17.625 -22.082031 15.65625 -22.125 C 13.71875 -22.195312 12.019531 -21.367188 10.5625 -19.640625 L 7.09375 0 L -0.109375 0 L 6.6875 -39.171875 L 13.890625 -39.171875 Z M 11.046875 -24.53125 "/></g></g></g><g fill="#ffffff" fill-opacity="1"><g transform="translate(150.25693, 88.55477)"><g><path d="M 13.1875 0.515625 C 10.769531 0.492188 8.628906 -0.0976562 6.765625 -1.265625 C 4.910156 -2.429688 3.519531 -4.03125 2.59375 -6.0625 C 1.675781 -8.09375 1.320312 -10.332031 1.53125 -12.78125 L 1.609375 -13.796875 C 1.859375 -16.484375 2.640625 -18.945312 3.953125 -21.1875 C 5.265625 -23.425781 6.945312 -25.15625 9 -26.375 C 11.050781 -27.59375 13.328125 -28.164062 15.828125 -28.09375 C 19.378906 -28.03125 22.066406 -26.726562 23.890625 -24.1875 C 25.722656 -21.644531 26.421875 -18.425781 25.984375 -14.53125 L 25.578125 -11.390625 L 8.671875 -11.390625 C 8.597656 -9.609375 9.03125 -8.179688 9.96875 -7.109375 C 10.90625 -6.035156 12.179688 -5.484375 13.796875 -5.453125 C 16.410156 -5.390625 18.703125 -6.398438 20.671875 -8.484375 L 23.96875 -4.40625 C 22.925781 -2.84375 21.425781 -1.625 19.46875 -0.75 C 17.519531 0.125 15.425781 0.546875 13.1875 0.515625 Z M 15.484375 -22.15625 C 14.148438 -22.1875 12.96875 -21.769531 11.9375 -20.90625 C 10.914062 -20.039062 9.992188 -18.535156 9.171875 -16.390625 L 19.078125 -16.390625 L 19.21875 -17.0625 C 19.320312 -17.738281 19.332031 -18.382812 19.25 -19 C 19.082031 -19.976562 18.664062 -20.742188 18 -21.296875 C 17.332031 -21.847656 16.492188 -22.132812 15.484375 -22.15625 Z M 15.484375 -22.15625 "/></g></g></g><g fill="#ffffff" fill-opacity="1"><g transform="translate(175.435514, 88.55477)"><g><path d="M 7.671875 0 L 0.4375 0 L 5.234375 -27.59375 L 12.46875 -27.59375 Z M 6.0625 -34.59375 C 6.03125 -35.738281 6.40625 -36.679688 7.1875 -37.421875 C 7.96875 -38.171875 8.910156 -38.546875 10.015625 -38.546875 C 11.109375 -38.585938 12.050781 -38.257812 12.84375 -37.5625 C 13.644531 -36.863281 14.0625 -35.960938 14.09375 -34.859375 C 14.132812 -33.804688 13.785156 -32.882812 13.046875 -32.09375 C 12.304688 -31.3125 11.335938 -30.90625 10.140625 -30.875 C 9.078125 -30.84375 8.140625 -31.164062 7.328125 -31.84375 C 6.523438 -32.519531 6.101562 -33.4375 6.0625 -34.59375 Z M 6.0625 -34.59375 "/></g></g></g><g fill="#ffffff" fill-opacity="1"><g transform="translate(186.670193, 88.55477)"><g><path d="M 16.03125 0 C 15.8125 -0.695312 15.71875 -1.53125 15.75 -2.5 C 13.675781 -0.425781 11.332031 0.578125 8.71875 0.515625 C 6.300781 0.472656 4.296875 -0.3125 2.703125 -1.84375 C 1.117188 -3.382812 0.378906 -5.285156 0.484375 -7.546875 C 0.597656 -10.554688 1.859375 -12.863281 4.265625 -14.46875 C 6.671875 -16.070312 9.898438 -16.875 13.953125 -16.875 L 17.3125 -16.828125 L 17.671875 -18.484375 C 17.773438 -19.046875 17.800781 -19.582031 17.75 -20.09375 C 17.664062 -20.894531 17.363281 -21.519531 16.84375 -21.96875 C 16.320312 -22.414062 15.632812 -22.648438 14.78125 -22.671875 C 13.664062 -22.703125 12.71875 -22.421875 11.9375 -21.828125 C 11.15625 -21.242188 10.648438 -20.398438 10.421875 -19.296875 L 3.21875 -19.28125 C 3.332031 -21.914062 4.539062 -24.050781 6.84375 -25.6875 C 9.144531 -27.332031 11.988281 -28.132812 15.375 -28.09375 C 18.5 -28.03125 20.945312 -27.097656 22.71875 -25.296875 C 24.488281 -23.503906 25.226562 -21.203125 24.9375 -18.390625 L 22.8125 -5.171875 L 22.6875 -3.546875 C 22.65625 -2.335938 22.800781 -1.316406 23.125 -0.484375 L 23.09375 0 Z M 10.5 -5.078125 C 12.570312 -5.003906 14.382812 -5.90625 15.9375 -7.78125 L 16.828125 -12.546875 L 14.328125 -12.5625 C 11.679688 -12.5 9.769531 -11.691406 8.59375 -10.140625 C 8.164062 -9.585938 7.898438 -8.898438 7.796875 -8.078125 C 7.660156 -7.160156 7.851562 -6.429688 8.375 -5.890625 C 8.894531 -5.359375 9.601562 -5.085938 10.5 -5.078125 Z M 10.5 -5.078125 "/></g></g></g><g fill="#ffffff" fill-opacity="1"><g transform="translate(67.038724, 104.665073)"><g><path d="M 0.203125 0 L 2.1875 -9.390625 L 4.8125 -9.390625 C 5.207031 -9.390625 5.617188 -9.363281 6.046875 -9.3125 C 6.472656 -9.257812 6.867188 -9.148438 7.234375 -8.984375 C 7.597656 -8.828125 7.890625 -8.585938 8.109375 -8.265625 C 8.335938 -7.953125 8.453125 -7.523438 8.453125 -6.984375 C 8.453125 -6.171875 8.265625 -5.523438 7.890625 -5.046875 C 7.523438 -4.566406 7.007812 -4.222656 6.34375 -4.015625 C 5.6875 -3.816406 4.914062 -3.71875 4.03125 -3.71875 L 2.328125 -3.71875 L 1.546875 0 Z M 2.59375 -4.859375 L 4.375 -4.859375 C 4.925781 -4.859375 5.398438 -4.921875 5.796875 -5.046875 C 6.203125 -5.171875 6.515625 -5.378906 6.734375 -5.671875 C 6.960938 -5.960938 7.078125 -6.359375 7.078125 -6.859375 C 7.078125 -7.421875 6.878906 -7.796875 6.484375 -7.984375 C 6.097656 -8.171875 5.582031 -8.265625 4.9375 -8.265625 L 3.296875 -8.265625 Z M 2.59375 -4.859375 "/></g></g></g><g fill="#ffffff" fill-opacity="1"><g transform="translate(75.430233, 104.665073)"><g><path d="M 3.34375 0.171875 C 2.425781 0.171875 1.703125 -0.09375 1.171875 -0.625 C 0.640625 -1.164062 0.375 -1.890625 0.375 -2.796875 C 0.375 -3.609375 0.535156 -4.335938 0.859375 -4.984375 C 1.179688 -5.640625 1.640625 -6.15625 2.234375 -6.53125 C 2.835938 -6.90625 3.539062 -7.09375 4.34375 -7.09375 C 4.96875 -7.09375 5.488281 -6.960938 5.90625 -6.703125 C 6.320312 -6.453125 6.632812 -6.109375 6.84375 -5.671875 C 7.050781 -5.234375 7.15625 -4.75 7.15625 -4.21875 C 7.15625 -3.882812 7.113281 -3.53125 7.03125 -3.15625 L 1.625 -3.15625 C 1.613281 -3.09375 1.609375 -3.03125 1.609375 -2.96875 C 1.609375 -2.90625 1.609375 -2.835938 1.609375 -2.765625 C 1.609375 -2.285156 1.703125 -1.90625 1.890625 -1.625 C 2.078125 -1.351562 2.3125 -1.160156 2.59375 -1.046875 C 2.882812 -0.929688 3.179688 -0.875 3.484375 -0.875 C 3.878906 -0.875 4.21875 -0.9375 4.5 -1.0625 C 4.78125 -1.1875 5.019531 -1.351562 5.21875 -1.5625 L 6.3125 -1.21875 C 5.988281 -0.8125 5.582031 -0.476562 5.09375 -0.21875 C 4.601562 0.0390625 4.019531 0.171875 3.34375 0.171875 Z M 1.796875 -4.125 L 5.921875 -4.125 C 5.929688 -4.164062 5.9375 -4.203125 5.9375 -4.234375 C 5.9375 -4.273438 5.9375 -4.316406 5.9375 -4.359375 C 5.9375 -4.640625 5.875 -4.910156 5.75 -5.171875 C 5.632812 -5.429688 5.445312 -5.644531 5.1875 -5.8125 C 4.9375 -5.988281 4.597656 -6.078125 4.171875 -6.078125 C 3.828125 -6.078125 3.488281 -6 3.15625 -5.84375 C 2.832031 -5.695312 2.546875 -5.476562 2.296875 -5.1875 C 2.054688 -4.894531 1.890625 -4.539062 1.796875 -4.125 Z M 1.796875 -4.125 "/></g></g></g><g fill="#ffffff" fill-opacity="1"><g transform="translate(83.048658, 104.665073)"><g><path d="M 0.109375 0 L 1.59375 -6.96875 L 2.46875 -6.96875 L 2.59375 -5.671875 C 2.875 -6.078125 3.207031 -6.414062 3.59375 -6.6875 C 3.988281 -6.957031 4.535156 -7.09375 5.234375 -7.09375 L 5.390625 -7.09375 L 5.125 -5.828125 C 4.851562 -5.835938 4.609375 -5.828125 4.390625 -5.796875 C 3.671875 -5.679688 3.117188 -5.363281 2.734375 -4.84375 C 2.359375 -4.320312 2.085938 -3.664062 1.921875 -2.875 L 1.328125 0 Z M 0.109375 0 "/></g></g></g><g fill="#ffffff" fill-opacity="1"><g transform="translate(88.010474, 104.665073)"><g><path d="M 3 0.171875 C 2.289062 0.171875 1.695312 0.0351562 1.21875 -0.234375 C 0.738281 -0.503906 0.378906 -0.957031 0.140625 -1.59375 L 1.34375 -2 C 1.425781 -1.582031 1.632812 -1.273438 1.96875 -1.078125 C 2.300781 -0.878906 2.65625 -0.78125 3.03125 -0.78125 C 3.414062 -0.78125 3.765625 -0.878906 4.078125 -1.078125 C 4.398438 -1.273438 4.5625 -1.554688 4.5625 -1.921875 C 4.5625 -2.179688 4.46875 -2.382812 4.28125 -2.53125 C 4.09375 -2.675781 3.851562 -2.796875 3.5625 -2.890625 C 3.269531 -2.984375 2.957031 -3.070312 2.625 -3.15625 C 2.300781 -3.25 1.988281 -3.367188 1.6875 -3.515625 C 1.394531 -3.660156 1.15625 -3.859375 0.96875 -4.109375 C 0.78125 -4.367188 0.6875 -4.707031 0.6875 -5.125 C 0.6875 -5.570312 0.816406 -5.9375 1.078125 -6.21875 C 1.335938 -6.507812 1.671875 -6.726562 2.078125 -6.875 C 2.492188 -7.019531 2.925781 -7.09375 3.375 -7.09375 C 3.757812 -7.09375 4.132812 -7.035156 4.5 -6.921875 C 4.863281 -6.816406 5.1875 -6.65625 5.46875 -6.4375 C 5.75 -6.226562 5.945312 -5.96875 6.0625 -5.65625 L 4.9375 -5.265625 C 4.84375 -5.546875 4.628906 -5.753906 4.296875 -5.890625 C 3.972656 -6.035156 3.632812 -6.109375 3.28125 -6.109375 C 2.914062 -6.109375 2.59375 -6.035156 2.3125 -5.890625 C 2.03125 -5.742188 1.890625 -5.515625 1.890625 -5.203125 C 1.890625 -4.953125 1.984375 -4.753906 2.171875 -4.609375 C 2.359375 -4.460938 2.597656 -4.34375 2.890625 -4.25 C 3.191406 -4.15625 3.507812 -4.0625 3.84375 -3.96875 C 4.175781 -3.882812 4.492188 -3.765625 4.796875 -3.609375 C 5.097656 -3.460938 5.34375 -3.265625 5.53125 -3.015625 C 5.71875 -2.765625 5.8125 -2.429688 5.8125 -2.015625 C 5.8125 -1.535156 5.679688 -1.132812 5.421875 -0.8125 C 5.171875 -0.488281 4.832031 -0.242188 4.40625 -0.078125 C 3.988281 0.0859375 3.519531 0.171875 3 0.171875 Z M 3 0.171875 "/></g></g></g><g fill="#ffffff" fill-opacity="1"><g transform="translate(94.743362, 104.665073)"><g><path d="M 3.234375 0.171875 C 2.296875 0.171875 1.582031 -0.101562 1.09375 -0.65625 C 0.613281 -1.207031 0.375 -1.921875 0.375 -2.796875 C 0.375 -3.609375 0.535156 -4.335938 0.859375 -4.984375 C 1.191406 -5.640625 1.648438 -6.15625 2.234375 -6.53125 C 2.828125 -6.90625 3.503906 -7.09375 4.265625 -7.09375 C 4.742188 -7.09375 5.191406 -6.988281 5.609375 -6.78125 C 6.035156 -6.570312 6.382812 -6.253906 6.65625 -5.828125 C 6.925781 -5.398438 7.0625 -4.851562 7.0625 -4.1875 C 7.0625 -3.59375 6.96875 -3.035156 6.78125 -2.515625 C 6.59375 -1.992188 6.328125 -1.53125 5.984375 -1.125 C 5.648438 -0.71875 5.25 -0.398438 4.78125 -0.171875 C 4.3125 0.0546875 3.796875 0.171875 3.234375 0.171875 Z M 3.328125 -0.875 C 3.867188 -0.875 4.320312 -1.035156 4.6875 -1.359375 C 5.0625 -1.691406 5.34375 -2.113281 5.53125 -2.625 C 5.71875 -3.132812 5.8125 -3.671875 5.8125 -4.234375 C 5.8125 -4.921875 5.644531 -5.394531 5.3125 -5.65625 C 4.976562 -5.914062 4.566406 -6.046875 4.078125 -6.046875 C 3.523438 -6.046875 3.066406 -5.882812 2.703125 -5.5625 C 2.335938 -5.25 2.0625 -4.84375 1.875 -4.34375 C 1.695312 -3.84375 1.609375 -3.320312 1.609375 -2.78125 C 1.609375 -2.207031 1.753906 -1.742188 2.046875 -1.390625 C 2.335938 -1.046875 2.765625 -0.875 3.328125 -0.875 Z M 3.328125 -0.875 "/></g></g></g><g fill="#ffffff" fill-opacity="1"><g transform="translate(102.43207, 104.665073)"><g><path d="M 0.109375 0 L 1.59375 -6.96875 L 2.484375 -6.96875 L 2.578125 -6 C 2.804688 -6.300781 3.109375 -6.554688 3.484375 -6.765625 C 3.867188 -6.984375 4.375 -7.09375 5 -7.09375 C 5.59375 -7.09375 6.054688 -6.929688 6.390625 -6.609375 C 6.722656 -6.285156 6.890625 -5.789062 6.890625 -5.125 C 6.890625 -4.8125 6.847656 -4.445312 6.765625 -4.03125 L 5.890625 0 L 4.703125 0 L 5.53125 -3.921875 C 5.613281 -4.335938 5.65625 -4.675781 5.65625 -4.9375 C 5.65625 -5.34375 5.5625 -5.628906 5.375 -5.796875 C 5.1875 -5.960938 4.890625 -6.046875 4.484375 -6.046875 C 4.148438 -6.046875 3.820312 -5.96875 3.5 -5.8125 C 3.175781 -5.664062 2.890625 -5.414062 2.640625 -5.0625 C 2.398438 -4.707031 2.210938 -4.222656 2.078125 -3.609375 L 1.328125 0 Z M 0.109375 0 "/></g></g></g><g fill="#ffffff" fill-opacity="1"><g transform="translate(110.162946, 104.665073)"><g><path d="M 2.171875 0.171875 C 1.566406 0.171875 1.0625 0.0078125 0.65625 -0.3125 C 0.257812 -0.644531 0.0625 -1.085938 0.0625 -1.640625 C 0.0625 -2.109375 0.1875 -2.5 0.4375 -2.8125 C 0.6875 -3.125 1.007812 -3.375 1.40625 -3.5625 C 1.8125 -3.75 2.242188 -3.890625 2.703125 -3.984375 C 3.171875 -4.085938 3.625 -4.160156 4.0625 -4.203125 C 4.5 -4.253906 4.878906 -4.296875 5.203125 -4.328125 C 5.234375 -4.460938 5.253906 -4.582031 5.265625 -4.6875 C 5.285156 -4.800781 5.296875 -4.910156 5.296875 -5.015625 C 5.296875 -5.753906 4.863281 -6.125 4 -6.125 C 3.570312 -6.125 3.207031 -6.023438 2.90625 -5.828125 C 2.601562 -5.640625 2.375 -5.378906 2.21875 -5.046875 L 1.171875 -5.375 C 1.410156 -5.894531 1.765625 -6.3125 2.234375 -6.625 C 2.703125 -6.9375 3.273438 -7.09375 3.953125 -7.09375 C 4.765625 -7.09375 5.390625 -6.925781 5.828125 -6.59375 C 6.273438 -6.269531 6.5 -5.765625 6.5 -5.078125 C 6.5 -4.921875 6.484375 -4.757812 6.453125 -4.59375 C 6.429688 -4.4375 6.390625 -4.210938 6.328125 -3.921875 C 6.273438 -3.628906 6.1875 -3.203125 6.0625 -2.640625 C 5.9375 -2.054688 5.851562 -1.550781 5.8125 -1.125 C 5.769531 -0.695312 5.742188 -0.320312 5.734375 0 L 4.625 0 L 4.5625 -0.890625 C 4.257812 -0.535156 3.921875 -0.269531 3.546875 -0.09375 C 3.179688 0.0820312 2.722656 0.171875 2.171875 0.171875 Z M 2.546875 -0.796875 C 3.179688 -0.796875 3.722656 -1.007812 4.171875 -1.4375 C 4.628906 -1.863281 4.921875 -2.4375 5.046875 -3.15625 L 5.09375 -3.390625 C 4.3125 -3.316406 3.644531 -3.226562 3.09375 -3.125 C 2.539062 -3.03125 2.117188 -2.878906 1.828125 -2.671875 C 1.535156 -2.460938 1.390625 -2.15625 1.390625 -1.75 C 1.390625 -1.4375 1.5 -1.195312 1.71875 -1.03125 C 1.945312 -0.875 2.222656 -0.796875 2.546875 -0.796875 Z M 2.546875 -0.796875 "/></g></g></g><g fill="#ffffff" fill-opacity="1"><g transform="translate(117.486196, 104.665073)"><g><path d="M 1.765625 0 C 1.222656 0 0.851562 -0.078125 0.65625 -0.234375 C 0.46875 -0.390625 0.375 -0.625 0.375 -0.9375 C 0.375 -1.195312 0.410156 -1.46875 0.484375 -1.75 L 2.09375 -9.390625 L 3.296875 -9.390625 L 1.734375 -1.96875 C 1.710938 -1.863281 1.691406 -1.769531 1.671875 -1.6875 C 1.660156 -1.601562 1.65625 -1.53125 1.65625 -1.46875 C 1.65625 -1.320312 1.695312 -1.210938 1.78125 -1.140625 C 1.863281 -1.078125 2.023438 -1.046875 2.265625 -1.046875 L 2.78125 -1.046875 L 2.5625 0 Z M 1.765625 0 "/></g></g></g><g fill="#ffffff" fill-opacity="1"><g transform="translate(121.126736, 104.665073)"><g/></g></g><g fill="#ffffff" fill-opacity="1"><g transform="translate(125.062451, 104.665073)"><g><path d="M 0.203125 0 L 2.1875 -9.390625 L 4.78125 -9.390625 C 6.445312 -9.390625 7.613281 -8.984375 8.28125 -8.171875 C 8.945312 -7.359375 9.144531 -6.128906 8.875 -4.484375 C 8.707031 -3.484375 8.34375 -2.648438 7.78125 -1.984375 C 7.226562 -1.316406 6.523438 -0.816406 5.671875 -0.484375 C 4.828125 -0.160156 3.867188 0 2.796875 0 Z M 1.78125 -1.109375 L 3 -1.109375 C 3.757812 -1.109375 4.453125 -1.21875 5.078125 -1.4375 C 5.710938 -1.65625 6.242188 -2.019531 6.671875 -2.53125 C 7.109375 -3.039062 7.394531 -3.71875 7.53125 -4.5625 C 7.757812 -5.882812 7.628906 -6.832031 7.140625 -7.40625 C 6.660156 -7.976562 5.78125 -8.265625 4.5 -8.265625 L 3.296875 -8.265625 Z M 1.78125 -1.109375 "/></g></g></g><g fill="#ffffff" fill-opacity="1"><g transform="translate(134.536287, 104.665073)"><g><path d="M 3.34375 0.171875 C 2.425781 0.171875 1.703125 -0.09375 1.171875 -0.625 C 0.640625 -1.164062 0.375 -1.890625 0.375 -2.796875 C 0.375 -3.609375 0.535156 -4.335938 0.859375 -4.984375 C 1.179688 -5.640625 1.640625 -6.15625 2.234375 -6.53125 C 2.835938 -6.90625 3.539062 -7.09375 4.34375 -7.09375 C 4.96875 -7.09375 5.488281 -6.960938 5.90625 -6.703125 C 6.320312 -6.453125 6.632812 -6.109375 6.84375 -5.671875 C 7.050781 -5.234375 7.15625 -4.75 7.15625 -4.21875 C 7.15625 -3.882812 7.113281 -3.53125 7.03125 -3.15625 L 1.625 -3.15625 C 1.613281 -3.09375 1.609375 -3.03125 1.609375 -2.96875 C 1.609375 -2.90625 1.609375 -2.835938 1.609375 -2.765625 C 1.609375 -2.285156 1.703125 -1.90625 1.890625 -1.625 C 2.078125 -1.351562 2.3125 -1.160156 2.59375 -1.046875 C 2.882812 -0.929688 3.179688 -0.875 3.484375 -0.875 C 3.878906 -0.875 4.21875 -0.9375 4.5 -1.0625 C 4.78125 -1.1875 5.019531 -1.351562 5.21875 -1.5625 L 6.3125 -1.21875 C 5.988281 -0.8125 5.582031 -0.476562 5.09375 -0.21875 C 4.601562 0.0390625 4.019531 0.171875 3.34375 0.171875 Z M 1.796875 -4.125 L 5.921875 -4.125 C 5.929688 -4.164062 5.9375 -4.203125 5.9375 -4.234375 C 5.9375 -4.273438 5.9375 -4.316406 5.9375 -4.359375 C 5.9375 -4.640625 5.875 -4.910156 5.75 -5.171875 C 5.632812 -5.429688 5.445312 -5.644531 5.1875 -5.8125 C 4.9375 -5.988281 4.597656 -6.078125 4.171875 -6.078125 C 3.828125 -6.078125 3.488281 -6 3.15625 -5.84375 C 2.832031 -5.695312 2.546875 -5.476562 2.296875 -5.1875 C 2.054688 -4.894531 1.890625 -4.539062 1.796875 -4.125 Z M 1.796875 -4.125 "/></g></g></g><g fill="#ffffff" fill-opacity="1"><g transform="translate(142.154712, 104.665073)"><g><path d="M 1.609375 0 L 0.609375 -6.96875 L 1.828125 -6.96875 L 2.484375 -1.546875 L 5.46875 -6.96875 L 6.84375 -6.96875 L 2.875 0 Z M 1.609375 0 "/></g></g></g><g fill="#ffffff" fill-opacity="1"><g transform="translate(148.395635, 104.665073)"><g><path d="M 3.34375 0.171875 C 2.425781 0.171875 1.703125 -0.09375 1.171875 -0.625 C 0.640625 -1.164062 0.375 -1.890625 0.375 -2.796875 C 0.375 -3.609375 0.535156 -4.335938 0.859375 -4.984375 C 1.179688 -5.640625 1.640625 -6.15625 2.234375 -6.53125 C 2.835938 -6.90625 3.539062 -7.09375 4.34375 -7.09375 C 4.96875 -7.09375 5.488281 -6.960938 5.90625 -6.703125 C 6.320312 -6.453125 6.632812 -6.109375 6.84375 -5.671875 C 7.050781 -5.234375 7.15625 -4.75 7.15625 -4.21875 C 7.15625 -3.882812 7.113281 -3.53125 7.03125 -3.15625 L 1.625 -3.15625 C 1.613281 -3.09375 1.609375 -3.03125 1.609375 -2.96875 C 1.609375 -2.90625 1.609375 -2.835938 1.609375 -2.765625 C 1.609375 -2.285156 1.703125 -1.90625 1.890625 -1.625 C 2.078125 -1.351562 2.3125 -1.160156 2.59375 -1.046875 C 2.882812 -0.929688 3.179688 -0.875 3.484375 -0.875 C 3.878906 -0.875 4.21875 -0.9375 4.5 -1.0625 C 4.78125 -1.1875 5.019531 -1.351562 5.21875 -1.5625 L 6.3125 -1.21875 C 5.988281 -0.8125 5.582031 -0.476562 5.09375 -0.21875 C 4.601562 0.0390625 4.019531 0.171875 3.34375 0.171875 Z M 1.796875 -4.125 L 5.921875 -4.125 C 5.929688 -4.164062 5.9375 -4.203125 5.9375 -4.234375 C 5.9375 -4.273438 5.9375 -4.316406 5.9375 -4.359375 C 5.9375 -4.640625 5.875 -4.910156 5.75 -5.171875 C 5.632812 -5.429688 5.445312 -5.644531 5.1875 -5.8125 C 4.9375 -5.988281 4.597656 -6.078125 4.171875 -6.078125 C 3.828125 -6.078125 3.488281 -6 3.15625 -5.84375 C 2.832031 -5.695312 2.546875 -5.476562 2.296875 -5.1875 C 2.054688 -4.894531 1.890625 -4.539062 1.796875 -4.125 Z M 1.796875 -4.125 "/></g></g></g><g fill="#ffffff" fill-opacity="1"><g transform="translate(156.01406, 104.665073)"><g><path d="M 1.765625 0 C 1.222656 0 0.851562 -0.078125 0.65625 -0.234375 C 0.46875 -0.390625 0.375 -0.625 0.375 -0.9375 C 0.375 -1.195312 0.410156 -1.46875 0.484375 -1.75 L 2.09375 -9.390625 L 3.296875 -9.390625 L 1.734375 -1.96875 C 1.710938 -1.863281 1.691406 -1.769531 1.671875 -1.6875 C 1.660156 -1.601562 1.65625 -1.53125 1.65625 -1.46875 C 1.65625 -1.320312 1.695312 -1.210938 1.78125 -1.140625 C 1.863281 -1.078125 2.023438 -1.046875 2.265625 -1.046875 L 2.78125 -1.046875 L 2.5625 0 Z M 1.765625 0 "/></g></g></g><g fill="#ffffff" fill-opacity="1"><g transform="translate(159.6546, 104.665073)"><g><path d="M 3.234375 0.171875 C 2.296875 0.171875 1.582031 -0.101562 1.09375 -0.65625 C 0.613281 -1.207031 0.375 -1.921875 0.375 -2.796875 C 0.375 -3.609375 0.535156 -4.335938 0.859375 -4.984375 C 1.191406 -5.640625 1.648438 -6.15625 2.234375 -6.53125 C 2.828125 -6.90625 3.503906 -7.09375 4.265625 -7.09375 C 4.742188 -7.09375 5.191406 -6.988281 5.609375 -6.78125 C 6.035156 -6.570312 6.382812 -6.253906 6.65625 -5.828125 C 6.925781 -5.398438 7.0625 -4.851562 7.0625 -4.1875 C 7.0625 -3.59375 6.96875 -3.035156 6.78125 -2.515625 C 6.59375 -1.992188 6.328125 -1.53125 5.984375 -1.125 C 5.648438 -0.71875 5.25 -0.398438 4.78125 -0.171875 C 4.3125 0.0546875 3.796875 0.171875 3.234375 0.171875 Z M 3.328125 -0.875 C 3.867188 -0.875 4.320312 -1.035156 4.6875 -1.359375 C 5.0625 -1.691406 5.34375 -2.113281 5.53125 -2.625 C 5.71875 -3.132812 5.8125 -3.671875 5.8125 -4.234375 C 5.8125 -4.921875 5.644531 -5.394531 5.3125 -5.65625 C 4.976562 -5.914062 4.566406 -6.046875 4.078125 -6.046875 C 3.523438 -6.046875 3.066406 -5.882812 2.703125 -5.5625 C 2.335938 -5.25 2.0625 -4.84375 1.875 -4.34375 C 1.695312 -3.84375 1.609375 -3.320312 1.609375 -2.78125 C 1.609375 -2.207031 1.753906 -1.742188 2.046875 -1.390625 C 2.335938 -1.046875 2.765625 -0.875 3.328125 -0.875 Z M 3.328125 -0.875 "/></g></g></g><g fill="#ffffff" fill-opacity="1"><g transform="translate(167.343307, 104.665073)"><g><path d="M -0.359375 2.28125 L 1.609375 -6.96875 L 2.484375 -6.96875 L 2.5625 -6.046875 C 2.75 -6.316406 3.007812 -6.554688 3.34375 -6.765625 C 3.6875 -6.984375 4.125 -7.09375 4.65625 -7.09375 C 5.226562 -7.09375 5.695312 -6.957031 6.0625 -6.6875 C 6.4375 -6.414062 6.710938 -6.054688 6.890625 -5.609375 C 7.078125 -5.160156 7.171875 -4.664062 7.171875 -4.125 C 7.171875 -3.625 7.097656 -3.125 6.953125 -2.625 C 6.816406 -2.125 6.609375 -1.660156 6.328125 -1.234375 C 6.054688 -0.816406 5.707031 -0.476562 5.28125 -0.21875 C 4.851562 0.0390625 4.351562 0.171875 3.78125 0.171875 C 3.226562 0.171875 2.765625 0.0390625 2.390625 -0.21875 C 2.023438 -0.488281 1.765625 -0.851562 1.609375 -1.3125 L 0.84375 2.28125 Z M 3.65625 -0.828125 C 4.019531 -0.828125 4.335938 -0.925781 4.609375 -1.125 C 4.890625 -1.320312 5.125 -1.582031 5.3125 -1.90625 C 5.507812 -2.226562 5.65625 -2.585938 5.75 -2.984375 C 5.851562 -3.378906 5.90625 -3.773438 5.90625 -4.171875 C 5.90625 -4.765625 5.765625 -5.226562 5.484375 -5.5625 C 5.203125 -5.90625 4.8125 -6.078125 4.3125 -6.078125 C 3.820312 -6.078125 3.398438 -5.914062 3.046875 -5.59375 C 2.703125 -5.28125 2.429688 -4.882812 2.234375 -4.40625 C 2.046875 -3.9375 1.953125 -3.445312 1.953125 -2.9375 C 1.953125 -2.351562 2.101562 -1.851562 2.40625 -1.4375 C 2.707031 -1.03125 3.125 -0.828125 3.65625 -0.828125 Z M 3.65625 -0.828125 "/></g></g></g><g fill="#ffffff" fill-opacity="1"><g transform="translate(175.158523, 104.665073)"><g><path d="M 0.109375 0 L 1.59375 -6.96875 L 2.484375 -6.96875 L 2.578125 -6 C 2.847656 -6.332031 3.148438 -6.597656 3.484375 -6.796875 C 3.828125 -6.992188 4.265625 -7.09375 4.796875 -7.09375 C 5.347656 -7.09375 5.765625 -6.976562 6.046875 -6.75 C 6.335938 -6.53125 6.546875 -6.226562 6.671875 -5.84375 C 7.023438 -6.300781 7.40625 -6.625 7.8125 -6.8125 C 8.21875 -7 8.664062 -7.09375 9.15625 -7.09375 C 9.28125 -7.09375 9.445312 -7.078125 9.65625 -7.046875 C 9.863281 -7.015625 10.078125 -6.941406 10.296875 -6.828125 C 10.515625 -6.722656 10.695312 -6.539062 10.84375 -6.28125 C 11 -6.03125 11.078125 -5.679688 11.078125 -5.234375 C 11.078125 -4.953125 11.035156 -4.613281 10.953125 -4.21875 L 10.0625 0 L 8.859375 0 L 9.71875 -4.0625 C 9.800781 -4.445312 9.84375 -4.773438 9.84375 -5.046875 C 9.84375 -5.378906 9.765625 -5.628906 9.609375 -5.796875 C 9.453125 -5.972656 9.175781 -6.0625 8.78125 -6.0625 C 8.195312 -6.0625 7.707031 -5.859375 7.3125 -5.453125 C 6.925781 -5.054688 6.65625 -4.503906 6.5 -3.796875 L 5.6875 0 L 4.484375 0 L 5.34375 -4.0625 C 5.425781 -4.425781 5.46875 -4.742188 5.46875 -5.015625 C 5.46875 -5.367188 5.382812 -5.628906 5.21875 -5.796875 C 5.0625 -5.972656 4.789062 -6.0625 4.40625 -6.0625 C 3.882812 -6.0625 3.414062 -5.878906 3 -5.515625 C 2.582031 -5.148438 2.289062 -4.578125 2.125 -3.796875 L 1.328125 0 Z M 0.109375 0 "/></g></g></g><g fill="#ffffff" fill-opacity="1"><g transform="translate(187.050019, 104.665073)"><g><path d="M 3.34375 0.171875 C 2.425781 0.171875 1.703125 -0.09375 1.171875 -0.625 C 0.640625 -1.164062 0.375 -1.890625 0.375 -2.796875 C 0.375 -3.609375 0.535156 -4.335938 0.859375 -4.984375 C 1.179688 -5.640625 1.640625 -6.15625 2.234375 -6.53125 C 2.835938 -6.90625 3.539062 -7.09375 4.34375 -7.09375 C 4.96875 -7.09375 5.488281 -6.960938 5.90625 -6.703125 C 6.320312 -6.453125 6.632812 -6.109375 6.84375 -5.671875 C 7.050781 -5.234375 7.15625 -4.75 7.15625 -4.21875 C 7.15625 -3.882812 7.113281 -3.53125 7.03125 -3.15625 L 1.625 -3.15625 C 1.613281 -3.09375 1.609375 -3.03125 1.609375 -2.96875 C 1.609375 -2.90625 1.609375 -2.835938 1.609375 -2.765625 C 1.609375 -2.285156 1.703125 -1.90625 1.890625 -1.625 C 2.078125 -1.351562 2.3125 -1.160156 2.59375 -1.046875 C 2.882812 -0.929688 3.179688 -0.875 3.484375 -0.875 C 3.878906 -0.875 4.21875 -0.9375 4.5 -1.0625 C 4.78125 -1.1875 5.019531 -1.351562 5.21875 -1.5625 L 6.3125 -1.21875 C 5.988281 -0.8125 5.582031 -0.476562 5.09375 -0.21875 C 4.601562 0.0390625 4.019531 0.171875 3.34375 0.171875 Z M 1.796875 -4.125 L 5.921875 -4.125 C 5.929688 -4.164062 5.9375 -4.203125 5.9375 -4.234375 C 5.9375 -4.273438 5.9375 -4.316406 5.9375 -4.359375 C 5.9375 -4.640625 5.875 -4.910156 5.75 -5.171875 C 5.632812 -5.429688 5.445312 -5.644531 5.1875 -5.8125 C 4.9375 -5.988281 4.597656 -6.078125 4.171875 -6.078125 C 3.828125 -6.078125 3.488281 -6 3.15625 -5.84375 C 2.832031 -5.695312 2.546875 -5.476562 2.296875 -5.1875 C 2.054688 -4.894531 1.890625 -4.539062 1.796875 -4.125 Z M 1.796875 -4.125 "/></g></g></g><g fill="#ffffff" fill-opacity="1"><g transform="translate(194.668443, 104.665073)"><g><path d="M 0.109375 0 L 1.59375 -6.96875 L 2.484375 -6.96875 L 2.578125 -6 C 2.804688 -6.300781 3.109375 -6.554688 3.484375 -6.765625 C 3.867188 -6.984375 4.375 -7.09375 5 -7.09375 C 5.59375 -7.09375 6.054688 -6.929688 6.390625 -6.609375 C 6.722656 -6.285156 6.890625 -5.789062 6.890625 -5.125 C 6.890625 -4.8125 6.847656 -4.445312 6.765625 -4.03125 L 5.890625 0 L 4.703125 0 L 5.53125 -3.921875 C 5.613281 -4.335938 5.65625 -4.675781 5.65625 -4.9375 C 5.65625 -5.34375 5.5625 -5.628906 5.375 -5.796875 C 5.1875 -5.960938 4.890625 -6.046875 4.484375 -6.046875 C 4.148438 -6.046875 3.820312 -5.96875 3.5 -5.8125 C 3.175781 -5.664062 2.890625 -5.414062 2.640625 -5.0625 C 2.398438 -4.707031 2.210938 -4.222656 2.078125 -3.609375 L 1.328125 0 Z M 0.109375 0 "/></g></g></g><g fill="#ffffff" fill-opacity="1"><g transform="translate(202.39932, 104.665073)"><g><path d="M 2.25 0 C 1.707031 0 1.332031 -0.078125 1.125 -0.234375 C 0.925781 -0.390625 0.828125 -0.625 0.828125 -0.9375 C 0.828125 -1.144531 0.875 -1.460938 0.96875 -1.890625 L 1.859375 -6.015625 L 0.6875 -6.015625 L 0.890625 -6.96875 L 2.046875 -6.96875 L 2.4375 -8.71875 L 3.640625 -8.71875 L 3.265625 -6.96875 L 4.59375 -6.96875 L 4.40625 -6.015625 L 3.0625 -6.015625 L 2.25 -2.234375 C 2.207031 -2.066406 2.175781 -1.914062 2.15625 -1.78125 C 2.132812 -1.644531 2.125 -1.539062 2.125 -1.46875 C 2.125 -1.3125 2.164062 -1.203125 2.25 -1.140625 C 2.332031 -1.078125 2.492188 -1.046875 2.734375 -1.046875 L 3.34375 -1.046875 L 3.125 0 Z M 2.25 0 "/></g></g></g></svg>